<svg width="24" height="24" viewBox="0 0 24 24" fill="none" xmlns="http://www.w3.org/2000/svg">
<path fill-rule="evenodd" clip-rule="evenodd" d="M6.75874 4.34731C6.77352 4.36044 6.78799 4.37408 6.80215 4.38824L6.9201 4.50619C6.9331 4.51918 6.94558 4.5325 6.95754 4.54611L9.73181 7.32037L9.73222 7.31958C9.73244 7.31917 9.73299 7.31908 9.73333 7.31942C9.73354 7.31963 9.73359 7.31996 9.73345 7.32023L9.73284 7.3214L19.5194 17.1079C19.5294 17.1163 19.5391 17.1252 19.5485 17.1345L19.8941 17.4802C19.9068 17.4929 19.919 17.5059 19.9307 17.5193L20.3837 17.9723C20.7742 18.3628 20.7742 18.996 20.3837 19.3865C19.9932 19.777 19.36 19.777 18.9695 19.3865L3.41316 3.83015C3.02264 3.43963 3.02264 2.80646 3.41316 2.41594C3.80369 2.02542 4.43685 2.02542 4.82738 2.41594L6.75874 4.34731ZM7.55003 3.7219C7.91398 4.08585 8.49083 4.10552 8.93298 3.84204C9.83048 3.30722 10.8794 3 12 3L10.2197 6.39104C10.2196 6.39125 10.2196 6.39151 10.2198 6.39168C10.2201 6.39194 10.2205 6.39187 10.2207 6.39155L12 3C15.3137 3 18 5.68629 18 9V13.2843C18 13.5519 18.0317 13.8113 18.0824 14.0561C18.1179 14.2277 18.2096 14.3815 18.3335 14.5054L20.3702 16.5421C20.6067 16.7786 21 16.6678 21 16.3333C21 15.816 20.75 15.3124 20.5 14.8088C20.25 14.3052 20 13.8016 20 13.2843V9C20 4.58172 16.4183 1 12 1C10.3877 1 8.88684 1.47694 7.63075 2.29743C7.14438 2.61513 7.12207 3.29394 7.53286 3.70473L7.55003 3.7219ZM16.5856 18.4144C16.8018 18.6305 16.6487 19 16.3431 19C16.1536 19 16.0015 19.1541 15.9855 19.3429C15.8116 21.3915 14.0936 23 12 23C10.1325 23 8.56394 21.7202 8.12343 19.9899C7.98717 19.4547 7.55228 19 7 19H6H5.66667C4.19391 19 3 17.8061 3 16.3333C3 15.816 3.25 15.3124 3.5 14.8088C3.75 14.3052 4 13.8016 4 13.2843V9C4 8.60069 4.02926 8.20821 4.08574 7.82459C4.19258 7.09899 5.06498 6.89371 5.58359 7.41232L5.72597 7.5547C5.95779 7.78651 6.05553 8.11679 6.02549 8.44325C6.00862 8.62657 6 8.81228 6 9V13.2843C6 14.2891 5.55286 15.178 5.33365 15.6138C5.31839 15.6441 5.30424 15.6723 5.29142 15.6981C5.10551 16.0726 5.03803 16.2418 5.01364 16.3074L5.002 16.3295C5.00069 16.332 4.99999 16.3348 4.99997 16.3376C4.99993 16.3401 4.99991 16.3418 5.00006 16.3425C5.00495 16.7064 5.30152 17 5.66667 17H6H8H10H14H14.7571C15.0223 17 15.2766 17.1054 15.4642 17.2929L16.5856 18.4144ZM5.00274 16.3374L5.00516 16.3306L5.01364 16.3074L8.27135 10.1022C8.27171 10.1015 8.27263 10.1014 8.27318 10.1019C8.27353 10.1023 8.27361 10.1028 8.27338 10.1032L5.00274 16.3374ZM5.00274 16.3374L5.00006 16.3425C5.00011 16.3426 5.00018 16.3426 5.00026 16.3427C5.00036 16.3427 5.00047 16.3427 5.00056 16.3426C5.00097 16.342 5.00164 16.3403 5.00274 16.3374ZM10.2445 19.959C10.5841 20.5793 11.2429 21 12 21C12.7571 21 13.4159 20.5793 13.7555 19.959C14.0207 19.4745 13.5523 19 13 19H11C10.4477 19 9.97928 19.4745 10.2445 19.959Z" fill="#7BAB6E"/>
</svg>
