<svg width="24" height="24" viewBox="0 0 24 24" fill="none" xmlns="http://www.w3.org/2000/svg">
<path fill-rule="evenodd" clip-rule="evenodd" d="M10.1344 2.16527C9.86884 2.41228 9.60346 2.83722 9.0727 3.68712C8.87734 3.99995 8.77965 4.15637 8.6693 4.29135C8.24646 4.80854 7.64919 5.15337 6.98987 5.26097C6.8178 5.28905 6.6335 5.29543 6.26489 5.30821C5.26348 5.34291 4.76278 5.36026 4.41611 5.4667C3.04325 5.88822 2.22903 7.29849 2.55041 8.69818C2.63157 9.05163 2.8669 9.49392 3.33755 10.3785C3.51079 10.7041 3.59741 10.8669 3.65912 11.03C3.8956 11.6548 3.8956 12.3444 3.65912 12.9692C3.59741 13.1323 3.51079 13.2951 3.33755 13.6207C2.8669 14.5053 2.63157 14.9476 2.55042 15.301C2.22903 16.7007 3.04325 18.111 4.41611 18.5325C4.76278 18.639 5.26348 18.6563 6.26489 18.691C6.6335 18.7038 6.8178 18.7102 6.98987 18.7383C7.64919 18.8458 8.24646 19.1907 8.6693 19.7079C8.77965 19.8428 8.87733 19.9993 9.07269 20.3121L9.0727 20.3121C9.60346 21.162 9.86884 21.5869 10.1344 21.8339C11.1858 22.8121 12.8143 22.8121 13.8657 21.8339C14.1313 21.5869 14.3966 21.162 14.9274 20.3121L14.9274 20.3121C15.1228 19.9993 15.2204 19.8428 15.3308 19.7079C15.7536 19.1907 16.3509 18.8458 17.0102 18.7383C17.1823 18.7102 17.3666 18.7038 17.7352 18.691C18.7366 18.6563 19.2373 18.639 19.584 18.5325C20.9569 18.111 21.7711 16.7007 21.4497 15.301C21.3685 14.9476 21.1332 14.5053 20.6626 13.6207C20.4893 13.2951 20.4027 13.1323 20.341 12.9692C20.1045 12.3444 20.1045 11.6548 20.341 11.03C20.4027 10.8669 20.4893 10.7041 20.6626 10.3785C21.1332 9.49392 21.3685 9.05163 21.4497 8.69818C21.7711 7.29849 20.9569 5.88822 19.584 5.4667C19.2373 5.36026 18.7366 5.34291 17.7352 5.30821C17.3666 5.29543 17.1823 5.28905 17.0102 5.26097C16.3509 5.15337 15.7536 4.80854 15.3308 4.29135C15.2204 4.15638 15.1228 3.99996 14.9274 3.68715L14.9274 3.68712L14.9274 3.68711C14.3966 2.83722 14.1313 2.41228 13.8657 2.16527C12.8143 1.1871 11.1858 1.1871 10.1344 2.16527ZM12.0001 15.9996C14.2093 15.9996 16.0001 14.2087 16.0001 11.9996C16.0001 9.79043 14.2093 7.99957 12.0001 7.99957C9.79098 7.99957 8.00012 9.79043 8.00012 11.9996C8.00012 14.2087 9.79098 15.9996 12.0001 15.9996Z" fill="#7BAB6E"/>
</svg>
