<svg width="48" height="48" viewBox="0 0 48 48" fill="none" xmlns="http://www.w3.org/2000/svg">
<circle cx="24" cy="24" r="24" fill="#75BD62"/>
<path fill-rule="evenodd" clip-rule="evenodd" d="M21 22C23.2091 22 25 20.2091 25 18C25 15.7909 23.2091 14 21 14C18.7909 14 17 15.7909 17 18C17 20.2091 18.7909 22 21 22ZM21 24C24.3137 24 27 21.3137 27 18C27 14.6863 24.3137 12 21 12C17.6863 12 15 14.6863 15 18C15 21.3137 17.6863 24 21 24ZM19 28C15.6863 28 13 30.6863 13 34H29C29 30.6863 26.3137 28 23 28H19ZM19 26C14.5817 26 11 29.5817 11 34C11 35.1046 11.8954 36 13 36H29C30.1046 36 31 35.1046 31 34C31 29.5817 27.4183 26 23 26H19ZM34 27C34 27.5523 33.5523 28 33 28C32.4477 28 32 27.5523 32 27V24H29C28.4477 24 28 23.5523 28 23C28 22.4477 28.4477 22 29 22H32V19C32 18.4477 32.4477 18 33 18C33.5523 18 34 18.4477 34 19V22H37C37.5523 22 38 22.4477 38 23C38 23.5523 37.5523 24 37 24H34V27Z" fill="white"/>
</svg>
