<svg width="24" height="24" viewBox="0 0 24 24" fill="none" xmlns="http://www.w3.org/2000/svg">
<path fill-rule="evenodd" clip-rule="evenodd" d="M4 9C4 4.58172 7.58172 1 12 1C16.4183 1 20 4.58172 20 9V13.2843C20 13.8016 20.25 14.3052 20.5 14.8088C20.75 15.3124 21 15.816 21 16.3333C21 17.8061 19.8061 19 18.3333 19H18H6H5.66667C4.19391 19 3 17.8061 3 16.3333C3 15.816 3.25 15.3124 3.5 14.8088C3.75 14.3052 4 13.8016 4 13.2843V9ZM12.0009 23C10.1371 23 8.571 21.7252 8.12695 20H15.8749C15.4309 21.7252 13.8648 23 12.0009 23Z" fill="#7BAB6E"/>
</svg>
