<svg width="40" height="40" viewBox="0 0 40 40" fill="none" xmlns="http://www.w3.org/2000/svg">
<circle cx="20" cy="20" r="20" fill="#EBF7E8"/>
<path fill-rule="evenodd" clip-rule="evenodd" d="M28.7071 16.6569L22.3431 10.2929C21.9526 9.90237 21.3195 9.90237 20.9289 10.2929C20.5384 10.6834 20.5384 11.3166 20.9289 11.7071L25.5858 16.364H8C7.44772 16.364 7 16.8117 7 17.364C7 17.9162 7.44772 18.364 8 18.364H18H25.5858H28.4142L28.7071 18.0711C29.0976 17.6805 29.0976 17.0474 28.7071 16.6569Z" fill="#7BAB6E"/>
<path fill-rule="evenodd" clip-rule="evenodd" d="M11.2929 22.7064L17.6569 29.0704C18.0474 29.4609 18.6805 29.4609 19.0711 29.0704C19.4616 28.6799 19.4616 28.0467 19.0711 27.6562L14.4142 22.9993L32 22.9993C32.5523 22.9993 33 22.5516 33 21.9993C33 21.447 32.5523 20.9993 32 20.9993L22 20.9993L14.4142 20.9993L11.5858 20.9993L11.2929 21.2922C10.9024 21.6827 10.9024 22.3159 11.2929 22.7064Z" fill="#7BAB6E"/>
</svg>
