<svg width="24" height="24" viewBox="0 0 24 24" fill="none" xmlns="http://www.w3.org/2000/svg">
<path fill-rule="evenodd" clip-rule="evenodd" d="M16.5508 3C16.5508 3.55228 16.1031 4 15.5508 4H6.55078C5.44621 4 4.55078 4.89543 4.55078 6V18C4.55078 19.1046 5.44621 20 6.55078 20H15.5508C16.1031 20 16.5508 20.4477 16.5508 21C16.5508 21.5523 16.1031 22 15.5508 22H4.55078C3.44621 22 2.55078 21.1046 2.55078 20V4C2.55078 2.89543 3.44621 2 4.55078 2H15.5508C16.1031 2 16.5508 2.44772 16.5508 3Z" fill="#7BAB6E"/>
<path fill-rule="evenodd" clip-rule="evenodd" d="M15.4999 7.05266C15.8904 6.66213 16.5236 6.66213 16.9141 7.05266L21.1268 11.2653C21.137 11.2747 21.147 11.2844 21.1569 11.2942C21.3882 11.5255 21.4825 11.8418 21.4399 12.1425C21.4107 12.3499 21.3163 12.55 21.1568 12.7095C21.1482 12.7181 21.1395 12.7264 21.1308 12.7346L16.9143 16.9511C16.5238 17.3416 15.8906 17.3416 15.5001 16.9511C15.1096 16.5606 15.1096 15.9274 15.5001 15.5369L17.6955 13.3414H7.55078C6.9985 13.3414 6.55078 12.8937 6.55078 12.3414C6.55078 11.7891 6.9985 11.3414 7.55078 11.3414H18.3745L15.4999 8.46687C15.1094 8.07635 15.1094 7.44318 15.4999 7.05266Z" fill="#7BAB6E"/>
</svg>
