<svg width="16" height="16" viewBox="0 0 16 16" fill="none" xmlns="http://www.w3.org/2000/svg">
<mask id="path-1-inside-1_5751_7171" fill="white">
<path fill-rule="evenodd" clip-rule="evenodd" d="M14.5379 7.93215C15.5907 6.45855 15.152 4.37403 13.8736 3.10473C12.2941 1.53651 9.80291 1.60298 8.30932 3.2532L7.90314 3.70197L7.49244 3.24821C6.04577 1.64988 3.63285 1.58554 2.10305 3.1045C0.851968 4.34671 0.441026 6.37953 1.40392 7.87199C2.27988 9.2297 3.61626 10.6024 7.10215 13.2897C7.31926 13.4969 7.58798 13.7328 7.9273 14.0068C7.96068 14.0338 8.00778 14.0359 8.04248 14.0107C8.73232 13.5092 9.41576 12.8921 9.88837 12.4411C12.5341 10.2322 13.7325 9.05943 14.5379 7.93215Z"/>
</mask>
<path d="M13.8736 3.10473L13.169 3.81436V3.81436L13.8736 3.10473ZM14.5379 7.93215L13.7242 7.35082V7.35082L14.5379 7.93215ZM8.30932 3.2532L9.05073 3.92424V3.92424L8.30932 3.2532ZM7.90314 3.70197L7.16174 4.37302L7.90315 5.19216L8.64456 4.37301L7.90314 3.70197ZM7.49244 3.24821L8.23385 2.57716V2.57716L7.49244 3.24821ZM2.10305 3.1045L2.80764 3.81412V3.81412L2.10305 3.1045ZM1.40392 7.87199L2.24421 7.32985L1.40392 7.87199ZM7.10215 13.2897L7.79245 12.5662L7.75438 12.5299L7.7127 12.4978L7.10215 13.2897ZM7.9273 14.0068L7.299 14.7848L7.299 14.7848L7.9273 14.0068ZM8.04248 14.0107L7.45449 13.2018L7.45449 13.2018L8.04248 14.0107ZM9.88837 12.4411L9.24748 11.6734L9.22201 11.6947L9.19802 11.7176L9.88837 12.4411ZM13.169 3.81436C14.1953 4.8333 14.4201 6.37672 13.7242 7.35082L15.3515 8.51347C16.7612 6.54037 16.1087 3.91477 14.5782 2.39511L13.169 3.81436ZM9.05073 3.92424C10.1616 2.69694 11.9943 2.64804 13.169 3.81436L14.5782 2.39511C12.5939 0.424978 9.44427 0.509014 7.5679 2.58215L9.05073 3.92424ZM8.64456 4.37301L9.05073 3.92424L7.5679 2.58215L7.16173 3.03092L8.64456 4.37301ZM6.75104 3.91927L7.16174 4.37302L8.64455 3.03091L8.23385 2.57716L6.75104 3.91927ZM2.80764 3.81412C3.93266 2.69706 5.68714 2.74385 6.75104 3.91927L8.23385 2.57716C6.40439 0.555915 3.33305 0.474012 1.39846 2.39488L2.80764 3.81412ZM2.24421 7.32985C1.58579 6.30933 1.82407 4.79071 2.80764 3.81412L1.39846 2.39488C-0.120136 3.90272 -0.703743 6.44974 0.563628 8.41412L2.24421 7.32985ZM7.7127 12.4978C4.24226 9.8223 3.02229 8.53585 2.24421 7.32985L0.563628 8.41412C1.53748 9.92356 2.99025 11.3824 6.4916 14.0817L7.7127 12.4978ZM8.5556 13.2288C8.23339 12.9686 7.98602 12.7509 7.79245 12.5662L6.41185 14.0133C6.6525 14.2428 6.94256 14.4969 7.299 14.7848L8.5556 13.2288ZM7.45449 13.2018C7.80106 12.9499 8.2523 12.9839 8.5556 13.2288L7.299 14.7848C7.66905 15.0836 8.21449 15.1219 8.63048 14.8195L7.45449 13.2018ZM9.19802 11.7176C8.73832 12.1563 8.09182 12.7385 7.45449 13.2018L8.63047 14.8195C9.37282 14.2799 10.0932 13.6278 10.5787 13.1646L9.19802 11.7176ZM13.7242 7.35082C13.0007 8.36356 11.8925 9.46512 9.24748 11.6734L10.5293 13.2087C13.1756 10.9993 14.4643 9.7553 15.3515 8.51347L13.7242 7.35082Z" fill="#B3D1AB" mask="url(#path-1-inside-1_5751_7171)"/>
</svg>
