<svg width="16" height="16" viewBox="0 0 16 16" fill="none" xmlns="http://www.w3.org/2000/svg">
<path fill-rule="evenodd" clip-rule="evenodd" d="M10 5C10 6.10457 9.10457 7 8 7C6.89543 7 6 6.10457 6 5C6 3.89543 6.89543 3 8 3C9.10457 3 10 3.89543 10 5ZM11 5C11 6.65685 9.65685 8 8 8C6.34315 8 5 6.65685 5 5C5 3.34315 6.34315 2 8 2C9.65685 2 11 3.34315 11 5ZM4 13C4 11.3431 5.34315 10 7 10H9C10.6569 10 12 11.3431 12 13H4ZM3 13C3 10.7909 4.79086 9 7 9H9C11.2091 9 13 10.7909 13 13C13 13.5523 12.5523 14 12 14H4C3.44772 14 3 13.5523 3 13Z" fill="#B3D1AB"/>
</svg>
