<svg width="48" height="48" viewBox="0 0 48 48" fill="none" xmlns="http://www.w3.org/2000/svg">
<circle cx="24" cy="24" r="24" fill="#75BD62"/>
<path fill-rule="evenodd" clip-rule="evenodd" d="M28 19.5C29.6569 19.5 31 18.1569 31 16.5C31 14.8431 29.6569 13.5 28 13.5C26.3431 13.5 25 14.8431 25 16.5C25 18.1569 26.3431 19.5 28 19.5ZM28 21C30.4853 21 32.5 18.9853 32.5 16.5C32.5 14.0147 30.4853 12 28 12C25.5147 12 23.5 14.0147 23.5 16.5C23.5 17.1896 23.6551 17.8429 23.9323 18.4271L18.8025 20.479C18.0337 19.8662 17.0596 19.5 16 19.5C13.5147 19.5 11.5 21.5147 11.5 24C11.5 26.4853 13.5147 28.5 16 28.5C17.0596 28.5 18.0337 28.1337 18.8026 27.5209L19.0151 27.6059L23.9324 29.5727C23.6551 30.1569 23.5 30.8104 23.5 31.5C23.5 33.9853 25.5147 36 28 36C30.4853 36 32.5 33.9853 32.5 31.5C32.5 29.0147 30.4853 27 28 27C26.9405 27 25.9665 27.3662 25.1976 27.9789L24.9847 27.8937L20.0676 25.9271C20.3449 25.343 20.5 24.6896 20.5 24C20.5 23.3104 20.3449 22.6571 20.0677 22.0729L25.1975 20.021C25.9663 20.6338 26.9404 21 28 21ZM28 34.5C29.6569 34.5 31 33.1569 31 31.5C31 29.8431 29.6569 28.5 28 28.5C26.3431 28.5 25 29.8431 25 31.5C25 33.1569 26.3431 34.5 28 34.5ZM19 24C19 25.6569 17.6569 27 16 27C14.3431 27 13 25.6569 13 24C13 22.3431 14.3431 21 16 21C17.6569 21 19 22.3431 19 24Z" fill="white"/>
</svg>
