<svg width="48" height="48" viewBox="0 0 48 48" fill="none" xmlns="http://www.w3.org/2000/svg">
<circle cx="24" cy="24" r="24" fill="#75BD62"/>
<path fill-rule="evenodd" clip-rule="evenodd" d="M32.4863 16.9288C32.8768 16.5383 32.8768 15.9051 32.4863 15.5146C32.0957 15.124 31.4626 15.124 31.072 15.5146L24.0008 22.5858L16.9298 15.5147C16.5392 15.1242 15.9061 15.1242 15.5155 15.5147C15.125 15.9052 15.125 16.5384 15.5155 16.9289L22.5866 24L15.5157 31.0709C15.1252 31.4614 15.1252 32.0946 15.5157 32.4851C15.9062 32.8757 16.5394 32.8757 16.9299 32.4851L24.0008 25.4142L31.0719 32.4853C31.4624 32.8758 32.0956 32.8758 32.4861 32.4853C32.8766 32.0948 32.8766 31.4616 32.4861 31.0711L25.415 24L32.4863 16.9288Z" fill="white"/>
</svg>
