<svg width="48" height="48" viewBox="0 0 48 48" fill="none" xmlns="http://www.w3.org/2000/svg">
<circle cx="24" cy="24" r="24" fill="#75BD62"/>
<path d="M18.5303 12.4697C18.2374 12.1768 17.7626 12.1768 17.4697 12.4697L12.6967 17.2426C12.4038 17.5355 12.4038 18.0104 12.6967 18.3033C12.9896 18.5962 13.4645 18.5962 13.7574 18.3033L18 14.0607L22.2426 18.3033C22.5355 18.5962 23.0104 18.5962 23.3033 18.3033C23.5962 18.0104 23.5962 17.5355 23.3033 17.2426L18.5303 12.4697ZM17.25 35C17.25 35.4142 17.5858 35.75 18 35.75C18.4142 35.75 18.75 35.4142 18.75 35L17.25 35ZM17.25 13L17.25 35L18.75 35L18.75 13L17.25 13Z" fill="white"/>
<path d="M30.75 13C30.75 12.5858 30.4142 12.25 30 12.25C29.5858 12.25 29.25 12.5858 29.25 13L30.75 13ZM29.4697 35.5303C29.7626 35.8232 30.2374 35.8232 30.5303 35.5303L35.3033 30.7574C35.5962 30.4645 35.5962 29.9896 35.3033 29.6967C35.0104 29.4038 34.5355 29.4038 34.2426 29.6967L30 33.9393L25.7574 29.6967C25.4645 29.4038 24.9896 29.4038 24.6967 29.6967C24.4038 29.9896 24.4038 30.4645 24.6967 30.7574L29.4697 35.5303ZM29.25 13L29.25 35L30.75 35L30.75 13L29.25 13Z" fill="white"/>
</svg>
