<svg width="16" height="17" viewBox="0 0 16 17" fill="none" xmlns="http://www.w3.org/2000/svg">
<path fill-rule="evenodd" clip-rule="evenodd" d="M13.6574 2.8427C13.2669 2.45217 12.6337 2.45217 12.2432 2.8427L8.00057 7.0853L3.75798 2.84271C3.36746 2.45219 2.73429 2.45219 2.34377 2.84271C1.95324 3.23323 1.95324 3.8664 2.34377 4.25692L6.58636 8.49951L2.34367 12.7422C1.95315 13.1327 1.95315 13.7659 2.34367 14.1564C2.7342 14.5469 3.36736 14.5469 3.75789 14.1564L8.00057 9.91372L12.2433 14.1564C12.6338 14.5469 13.267 14.5469 13.6575 14.1564C14.048 13.7659 14.048 13.1327 13.6575 12.7422L9.41478 8.49951L13.6574 4.25691C14.0479 3.86639 14.0479 3.23322 13.6574 2.8427Z" fill="#7BAB6E"/>
</svg>
