<svg width="67" height="62" viewBox="0 0 67 62" fill="none" xmlns="http://www.w3.org/2000/svg">
<path fill-rule="evenodd" clip-rule="evenodd" d="M25.5867 25.5867C31.2391 25.5867 35.8214 21.0045 35.8214 15.352C35.8214 9.69956 31.2391 5.11734 25.5867 5.11734C19.9342 5.11734 15.352 9.69956 15.352 15.352C15.352 21.0045 19.9342 25.5867 25.5867 25.5867ZM25.5867 30.704C34.0654 30.704 40.9387 23.8307 40.9387 15.352C40.9387 6.87333 34.0654 0 25.5867 0C17.108 0 10.2347 6.87333 10.2347 15.352C10.2347 23.8307 17.108 30.704 25.5867 30.704ZM30.704 40.9389H20.4694C11.9907 40.9389 5.11734 47.8122 5.11734 56.2909H46.0561C46.0561 47.8122 39.1827 40.9389 30.704 40.9389ZM20.4694 35.8215C9.16444 35.8215 0 44.986 0 56.2909C0 59.1171 2.29111 61.4082 5.11734 61.4082H46.0561C48.8823 61.4082 51.1734 59.1171 51.1734 56.2909C51.1734 44.986 42.009 35.8215 30.704 35.8215H20.4694ZM62.6728 16.0131C63.554 15.1319 64.9827 15.1319 65.8639 16.0131C66.7451 16.8943 66.7451 18.323 65.8639 19.2042L59.4812 25.5869L65.8636 31.9694C66.7448 32.8506 66.7448 34.2793 65.8636 35.1605C64.9824 36.0417 63.5537 36.0417 62.6725 35.1605L56.2901 28.778L49.9083 35.1598C49.0271 36.041 47.5984 36.041 46.7172 35.1598C45.836 34.2786 45.836 32.8499 46.7172 31.9687L53.0989 25.5869L46.7169 19.2049C45.8357 18.3237 45.8357 16.895 46.7169 16.0138C47.5981 15.1326 49.0268 15.1326 49.908 16.0138L56.2901 22.3958L62.6728 16.0131Z" fill="#7BAB6E"/>
</svg>
