<svg width="24" height="24" viewBox="0 0 24 24" fill="none" xmlns="http://www.w3.org/2000/svg">
<path fill-rule="evenodd" clip-rule="evenodd" d="M7.05041 9.87879C7.44093 9.48827 8.0741 9.48827 8.46462 9.87879C8.85515 10.2693 8.85515 10.9025 8.46462 11.293L6.3433 13.4143C5.17173 14.5859 5.17173 16.4854 6.3433 17.657C7.51487 18.8285 9.41437 18.8285 10.5859 17.657L12.7073 15.5356C13.0978 15.1451 13.731 15.1451 14.1215 15.5356C14.512 15.9262 14.512 16.5593 14.1215 16.9499L12.0002 19.0712C10.0475 21.0238 6.88171 21.0238 4.92909 19.0712C2.97647 17.1186 2.97647 13.9527 4.92909 12.0001L7.05041 9.87879ZM9.87884 8.46458C10.2694 8.8551 10.9025 8.8551 11.293 8.46458L13.4144 6.34326C14.5859 5.17168 16.4854 5.17168 17.657 6.34326C18.8286 7.51483 18.8286 9.41432 17.657 10.5859L15.5357 12.7072C15.1452 13.0977 15.1452 13.7309 15.5357 14.1214C15.9262 14.512 16.5594 14.512 16.9499 14.1214L19.0712 12.0001C21.0238 10.0475 21.0238 6.88166 19.0712 4.92904C17.1186 2.97642 13.9528 2.97642 12.0002 4.92904L9.87884 7.05036C9.48831 7.44089 9.48831 8.07405 9.87884 8.46458ZM9.17173 13.4143C8.7812 13.8048 8.7812 14.438 9.17173 14.8285C9.56225 15.2191 10.1954 15.2191 10.5859 14.8285L14.8286 10.5859C15.2191 10.1954 15.2191 9.56221 14.8286 9.17168C14.4381 8.78116 13.8049 8.78116 13.4144 9.17168L9.17173 13.4143Z" fill="#7BAB6E"/>
</svg>
